<?xml version="1.0" encoding="utf-8"?>
<!-- Generator: Adobe Illustrator 22.0.1, SVG Export Plug-In . SVG Version: 6.00 Build 0)  -->
<svg version="1.0" xmlns="http://www.w3.org/2000/svg" xmlns:xlink="http://www.w3.org/1999/xlink" x="0px" y="0px"
	 viewBox="0 0 285.5 329" enable-background="new 0 0 285.5 329" xml:space="preserve">
<g id="枠">
</g>
<g id="背景">
</g>
<g id="イラスト">
	<path stroke="#000000" stroke-width="2" stroke-miterlimit="10" d="M284.5,328H1c0,0,0-149.1,0-237.4C1,7.9,99.2-26.6,158,26.1
		c37.1,33.2,24.8,80.7,45.9,107c21.1,26.3,80.6,56.3,80.6,122.2C284.5,256.1,284.5,328,284.5,328z"/>
	<rect x="1.8" y="289.7" fill="#FFFFFF" width="8.6" height="37.5"/>
	<rect x="11.3" y="289.7" fill="#FFFFFF" width="8.5" height="37.5"/>
	<rect x="20.7" y="289.7" fill="#FFFFFF" width="8.5" height="37.5"/>
	<rect x="30.1" y="289.7" fill="#FFFFFF" width="8.5" height="37.5"/>
	<rect x="39.6" y="289.7" fill="#FFFFFF" width="8.5" height="37.5"/>
	<rect x="49" y="289.7" fill="#FFFFFF" width="8.5" height="37.5"/>
	<rect x="58.4" y="289.7" fill="#FFFFFF" width="8.5" height="37.5"/>
	<rect x="67.8" y="289.7" fill="#FFFFFF" width="8.5" height="37.5"/>
	<rect x="77.2" y="289.7" fill="#FFFFFF" width="8.5" height="37.5"/>
	<rect x="86.6" y="289.7" fill="#FFFFFF" width="8.5" height="37.5"/>
	<rect x="96.1" y="289.7" fill="#FFFFFF" width="8.5" height="37.5"/>
	<rect x="105.5" y="289.7" fill="#FFFFFF" width="8.5" height="37.5"/>
	<rect x="114.9" y="289.7" fill="#FFFFFF" width="8.5" height="37.5"/>
	<rect x="124.3" y="289.7" fill="#FFFFFF" width="8.5" height="37.5"/>
	<rect x="133.7" y="289.7" fill="#FFFFFF" width="8.5" height="37.5"/>
	<rect x="143.1" y="289.7" fill="#FFFFFF" width="8.5" height="37.5"/>
	<rect x="152.6" y="289.7" fill="#FFFFFF" width="8.5" height="37.5"/>
	<rect x="162" y="289.7" fill="#FFFFFF" width="8.5" height="37.5"/>
	<rect x="171.4" y="289.7" fill="#FFFFFF" width="8.5" height="37.5"/>
	<rect x="180.8" y="289.7" fill="#FFFFFF" width="8.5" height="37.5"/>
	<rect x="190.3" y="289.7" fill="#FFFFFF" width="8.5" height="37.5"/>
	<rect x="199.7" y="289.7" fill="#FFFFFF" width="8.5" height="37.5"/>
	<rect x="209.1" y="289.7" fill="#FFFFFF" width="8.5" height="37.5"/>
	<rect x="218.5" y="289.7" fill="#FFFFFF" width="8.5" height="37.5"/>
	<rect x="227.9" y="289.7" fill="#FFFFFF" width="8.5" height="37.5"/>
	<rect x="237.3" y="289.7" fill="#FFFFFF" width="8.5" height="37.5"/>
	<rect x="246.8" y="289.7" fill="#FFFFFF" width="8.5" height="37.5"/>
	<rect x="256.2" y="289.7" fill="#FFFFFF" width="8.5" height="37.5"/>
	<rect x="265.6" y="289.7" fill="#FFFFFF" width="8.5" height="37.5"/>
	<rect x="275" y="289.7" fill="#FFFFFF" width="8.6" height="37.5"/>
	<g>
		<g>
			<rect x="8.3" y="288.9" width="4.5" height="25.2"/>
		</g>
		<g>
			<rect x="27.3" y="288.9" width="4.5" height="25.2"/>
		</g>
		<g>
			<rect x="36.7" y="288.9" width="4.5" height="25.2"/>
		</g>
		<g>
			<rect x="55.5" y="288.9" width="4.5" height="25.2"/>
		</g>
		<g>
			<rect x="64.8" y="288.9" width="4.5" height="25.2"/>
		</g>
		<g>
			<rect x="74.2" y="288.9" width="4.5" height="25.2"/>
		</g>
		<g>
			<rect x="93.3" y="288.9" width="4.5" height="25.2"/>
		</g>
		<g>
			<rect x="102.6" y="288.9" width="4.5" height="25.2"/>
		</g>
		<g>
			<rect x="121.4" y="288.9" width="4.5" height="25.2"/>
		</g>
		<g>
			<rect x="130.8" y="288.9" width="4.5" height="25.2"/>
		</g>
		<g>
			<rect x="140.2" y="288.9" width="4.5" height="25.2"/>
		</g>
		<g>
			<rect x="159.2" y="288.9" width="4.5" height="25.2"/>
		</g>
		<g>
			<rect x="168.3" y="288.9" width="4.5" height="25.2"/>
		</g>
		<g>
			<rect x="187.4" y="288.9" width="4.5" height="25.2"/>
		</g>
		<g>
			<rect x="196.7" y="288.9" width="4.5" height="25.2"/>
		</g>
		<g>
			<rect x="206.1" y="288.9" width="4.5" height="25.2"/>
		</g>
		<g>
			<rect x="225.2" y="288.9" width="4.5" height="25.2"/>
		</g>
		<g>
			<rect x="234.5" y="288.9" width="4.5" height="25.2"/>
		</g>
		<g>
			<rect x="253.3" y="288.9" width="4.5" height="25.2"/>
		</g>
		<g>
			<rect x="262.7" y="288.9" width="4.5" height="25.2"/>
		</g>
		<g>
			<rect x="272.4" y="288.9" width="4.5" height="25.2"/>
		</g>
	</g>
</g>
<g id="文字">
</g>
<g id="ガイド">
</g>
<g id="トンボ">
</g>
</svg>
